<svg width="76" height="21" viewBox="0 0 76 21" fill="none" xmlns="http://www.w3.org/2000/svg">
<path fill-rule="evenodd" clip-rule="evenodd" d="M26.2345 10.2266L26.4977 8.72824C26.4977 8.72824 24.4711 8.07005 22.8217 9.29071V15.2847H24.5732V10.4148C25.2712 9.85237 26.2345 10.2266 26.2345 10.2266Z" fill="white"/>
<mask id="mask0_130_535" style="mask-type:luminance" maskUnits="userSpaceOnUse" x="22" y="8" width="5" height="8">
<path d="M22.8215 9.29022C23.6151 8.70304 24.4961 8.5506 25.1966 8.55071C25.952 8.55071 26.4977 8.72786 26.4977 8.72786L26.2344 10.2262C26.2344 10.2262 25.2711 9.852 24.5731 10.4143V15.2842H22.8215V9.29022Z" fill="white"/>
</mask>
<g mask="url(#mask0_130_535)">
<path fill-rule="evenodd" clip-rule="evenodd" d="M-83.8016 33.8613L162.863 33.8613L162.863 -315.58H-83.8016L-83.8016 33.8613Z" fill="white"/>
</g>
<mask id="mask1_130_535" style="mask-type:luminance" maskUnits="userSpaceOnUse" x="22" y="8" width="5" height="8">
<path d="M22.8215 9.29022C23.6151 8.70304 24.496 8.55071 25.1966 8.55071C25.952 8.55071 26.4977 8.72786 26.4977 8.72786L26.2344 10.2262C26.2344 10.2262 25.2711 9.852 24.5731 10.4143V15.2842H22.8215V9.29022Z" fill="white"/>
</mask>
<g mask="url(#mask1_130_535)">
<path fill-rule="evenodd" clip-rule="evenodd" d="M19.8851 18.2207H29.4342V5.61415H19.8851V18.2207Z" fill="white"/>
</g>
<path fill-rule="evenodd" clip-rule="evenodd" d="M11.1339 7.01914L12.8847 6.68929V8.63871H14.6171V10.1977H12.8847V12.5226C12.8847 12.9186 12.9487 13.233 13.0797 13.4655C13.2091 13.7016 13.4687 13.8186 13.8586 13.8186C14.0493 13.8186 14.2407 13.8003 14.4427 13.7615C14.639 13.7221 14.822 13.6714 14.9866 13.6051L15.2344 15.0653C15.0224 15.1563 14.7882 15.2352 14.53 15.3021C14.2709 15.3683 13.9529 15.4028 13.5771 15.4028C13.0993 15.4028 12.7045 15.3332 12.3906 15.195C12.0782 15.0569 11.8271 14.863 11.6399 14.6156C11.4527 14.3704 11.321 14.0695 11.2471 13.7171C11.1719 13.3655 11.1339 12.9771 11.1339 12.5486V7.01914Z" fill="white"/>
<mask id="mask2_130_535" style="mask-type:luminance" maskUnits="userSpaceOnUse" x="11" y="6" width="5" height="10">
<path d="M11.134 7.01914L12.8848 6.68929V8.63871H14.6172V10.1977H12.8848V12.5226C12.8848 12.9187 12.9488 13.233 13.0797 13.4655C13.2091 13.7017 13.4688 13.8186 13.8586 13.8186C14.0493 13.8186 14.2406 13.8003 14.4427 13.7615C14.639 13.7221 14.8221 13.6714 14.9868 13.6052L15.2344 15.0653C15.0226 15.1564 14.7882 15.2353 14.53 15.3022C14.2709 15.3684 13.9529 15.4028 13.5771 15.4028C13.0992 15.4028 12.7045 15.3332 12.3907 15.195C12.0783 15.0569 11.827 14.863 11.6399 14.6157C11.4527 14.3704 11.3211 14.0695 11.2473 13.7171C11.1719 13.3655 11.134 12.9772 11.134 12.5486V7.01914Z" fill="white"/>
</mask>
<g mask="url(#mask2_130_535)">
<path fill-rule="evenodd" clip-rule="evenodd" d="M-83.8016 33.8613L162.863 33.8613L162.863 -315.58H-83.8016L-83.8016 33.8613Z" fill="white"/>
</g>
<mask id="mask3_130_535" style="mask-type:luminance" maskUnits="userSpaceOnUse" x="11" y="6" width="5" height="10">
<path d="M11.134 7.01914L12.8848 6.68929V8.63871H14.6172V10.1977H12.8848V12.5226C12.8848 12.9187 12.9488 13.233 13.0797 13.4655C13.2091 13.7017 13.4688 13.8186 13.8586 13.8186C14.0493 13.8186 14.2406 13.8003 14.4427 13.7615C14.639 13.7221 14.8221 13.6714 14.9868 13.6052L15.2344 15.0653C15.0226 15.1564 14.7882 15.2353 14.53 15.3022C14.2709 15.3684 13.9529 15.4028 13.5771 15.4028C13.0992 15.4028 12.7045 15.3332 12.3907 15.195C12.0783 15.0569 11.827 14.863 11.6399 14.6157C11.4527 14.3704 11.3211 14.0695 11.2473 13.7171C11.1719 13.3655 11.134 12.9772 11.134 12.5486V7.01914Z" fill="white"/>
</mask>
<g mask="url(#mask3_130_535)">
<path fill-rule="evenodd" clip-rule="evenodd" d="M8.19751 18.3394H18.1709V3.75274H8.19751L8.19751 18.3394Z" fill="white"/>
</g>
<path fill-rule="evenodd" clip-rule="evenodd" d="M29.091 13.942C29.4112 13.942 29.6378 13.9067 29.7723 13.8405C29.9059 13.7736 29.9706 13.6425 29.9706 13.4508C29.9706 13.2993 29.8862 13.1675 29.713 13.0555C29.54 12.9413 29.2796 12.8145 28.9264 12.6699C28.6526 12.5607 28.4035 12.448 28.179 12.3317C27.9574 12.2134 27.7674 12.0752 27.6105 11.911C27.4541 11.7475 27.3331 11.5515 27.2459 11.3232C27.1586 11.0991 27.1172 10.8278 27.1172 10.5078C27.1172 9.88823 27.3331 9.39702 27.7632 9.03688C28.1938 8.67821 28.7836 8.495 29.5365 8.495C29.913 8.495 30.2732 8.5309 30.618 8.60353C30.9622 8.67399 31.2374 8.75438 31.4392 8.83536L31.1345 10.2941C30.9305 10.2188 30.7088 10.1525 30.4703 10.0948C30.2317 10.0357 29.9629 10.0046 29.6659 10.0046C29.1178 10.0046 28.8433 10.1695 28.8433 10.4958C28.8433 10.5711 28.8553 10.6382 28.8792 10.6966C28.9031 10.7558 28.9496 10.8122 29.0186 10.8664C29.091 10.9201 29.1853 10.9806 29.3077 11.0427C29.4294 11.1082 29.5843 11.1758 29.7723 11.2527C30.1543 11.4049 30.4717 11.5529 30.7222 11.7024C30.9734 11.8517 31.1704 12.009 31.3161 12.1836C31.4611 12.3543 31.5639 12.5432 31.6215 12.7531C31.6793 12.9625 31.7095 13.2041 31.7095 13.4798C31.7095 14.133 31.48 14.627 31.0234 14.9611C30.5645 15.2938 29.9157 15.4614 29.0776 15.4614C28.5301 15.4614 28.0741 15.4128 27.7103 15.3107C27.3451 15.2113 27.0932 15.1254 26.9525 15.0591L27.2459 13.5382C27.5422 13.6637 27.8504 13.7609 28.1615 13.8343C28.4767 13.9061 28.7836 13.942 29.091 13.942Z" fill="white"/>
<mask id="mask4_130_535" style="mask-type:luminance" maskUnits="userSpaceOnUse" x="26" y="8" width="6" height="8">
<path d="M27.763 9.03699C28.1938 8.67821 28.7834 8.495 29.5363 8.495C29.9129 8.495 30.2732 8.5309 30.618 8.60353C30.9621 8.67399 31.2372 8.75427 31.4392 8.83536L31.1345 10.2941C30.9304 10.2188 30.7088 10.1525 30.4702 10.0948C30.2317 10.0355 29.9628 10.0047 29.6659 10.0047C29.1176 10.0047 28.8433 10.1694 28.8433 10.4958C28.8433 10.5711 28.8551 10.6382 28.8791 10.6966C28.9031 10.7558 28.9496 10.8122 29.0186 10.8664C29.0909 10.9201 29.1853 10.9806 29.3077 11.0427C29.4294 11.1081 29.5841 11.1759 29.7722 11.2527C30.1543 11.4049 30.4716 11.5529 30.7221 11.7024C30.9734 11.8517 31.1704 12.0089 31.3161 12.1836C31.4611 12.3543 31.5637 12.5431 31.6215 12.7531C31.6793 12.9625 31.7093 13.2041 31.7093 13.4798C31.7093 14.133 31.4799 14.6271 31.0234 14.9611C30.5645 15.2938 29.9157 15.4614 29.0776 15.4614C28.5301 15.4614 28.0741 15.4128 27.7103 15.3107C27.345 15.2113 27.0932 15.1254 26.9524 15.0591L27.2459 13.5382C27.5422 13.6638 27.8503 13.7609 28.1614 13.8343C28.4766 13.906 28.7834 13.942 29.0909 13.942C29.4111 13.942 29.6378 13.9068 29.7722 13.8405C29.9059 13.7736 29.9706 13.6425 29.9706 13.4508C29.9706 13.2993 29.8862 13.1675 29.713 13.0555C29.5399 12.9413 29.2795 12.8145 28.9263 12.6699C28.6525 12.5607 28.4035 12.448 28.1789 12.3317C27.9574 12.2134 27.7673 12.0752 27.6105 11.911C27.4541 11.7474 27.3331 11.5515 27.2459 11.3232C27.1586 11.0989 27.1171 10.8278 27.1171 10.5078C27.1171 9.88835 27.3331 9.39713 27.763 9.03699Z" fill="white"/>
</mask>
<g mask="url(#mask4_130_535)">
<path fill-rule="evenodd" clip-rule="evenodd" d="M-83.8016 33.8613L162.863 33.8613L162.863 -315.58H-83.8016L-83.8016 33.8613Z" fill="white"/>
</g>
<mask id="mask5_130_535" style="mask-type:luminance" maskUnits="userSpaceOnUse" x="26" y="8" width="6" height="8">
<path d="M27.763 9.03699C28.1938 8.67821 28.7834 8.495 29.5363 8.495C29.9129 8.495 30.2732 8.5309 30.618 8.60353C30.9621 8.67399 31.2372 8.75427 31.4392 8.83536L31.1345 10.2941C30.9304 10.2188 30.7088 10.1525 30.4702 10.0948C30.2317 10.0355 29.9628 10.0047 29.6659 10.0047C29.1176 10.0047 28.8433 10.1694 28.8433 10.4958C28.8433 10.5711 28.8551 10.6382 28.8791 10.6966C28.9031 10.7558 28.9496 10.8122 29.0186 10.8664C29.0909 10.9201 29.1853 10.9806 29.3077 11.0427C29.4294 11.1081 29.5841 11.1759 29.7722 11.2527C30.1543 11.4049 30.4716 11.5529 30.7221 11.7024C30.9734 11.8517 31.1704 12.0089 31.3161 12.1836C31.4611 12.3543 31.5637 12.5431 31.6215 12.7531C31.6793 12.9625 31.7093 13.2041 31.7093 13.4798C31.7093 14.133 31.4799 14.6271 31.0234 14.9611C30.5645 15.2938 29.9157 15.4614 29.0776 15.4614C28.5301 15.4614 28.0741 15.4128 27.7103 15.3107C27.345 15.2113 27.0932 15.1254 26.9524 15.0591L27.2459 13.5382C27.5422 13.6638 27.8503 13.7609 28.1614 13.8343C28.4766 13.906 28.7834 13.942 29.0909 13.942C29.4111 13.942 29.6378 13.9068 29.7722 13.8405C29.9059 13.7736 29.9706 13.6425 29.9706 13.4508C29.9706 13.2993 29.8862 13.1675 29.713 13.0555C29.5399 12.9413 29.2795 12.8145 28.9263 12.6699C28.6525 12.5607 28.4035 12.448 28.1789 12.3317C27.9574 12.2134 27.7673 12.0752 27.6105 11.911C27.4541 11.7474 27.3331 11.5515 27.2459 11.3232C27.1586 11.0989 27.1171 10.8278 27.1171 10.5078C27.1171 9.88835 27.3331 9.39713 27.763 9.03699Z" fill="white"/>
</mask>
<g mask="url(#mask5_130_535)">
<path fill-rule="evenodd" clip-rule="evenodd" d="M24.016 18.3979H34.646V5.55844H24.016V18.3979Z" fill="white"/>
</g>
<path fill-rule="evenodd" clip-rule="evenodd" d="M37.1054 11.4887C36.9485 12.1258 36.7831 12.7601 36.6065 13.3873C36.4305 14.0167 36.2433 14.6496 36.0499 15.2866H34.6869C34.5454 14.9342 34.3913 14.5157 34.2266 14.03C34.0605 13.5424 33.891 13.0131 33.7129 12.4373C33.5369 11.8636 33.3569 11.2561 33.1724 10.6134C32.9873 9.9735 32.8079 9.32651 32.6362 8.67175H34.4813C34.5425 8.97266 34.6122 9.30329 34.6874 9.6591C34.7621 10.0157 34.8409 10.3829 34.9233 10.7607C35.0056 11.1371 35.0936 11.5154 35.1836 11.8974C35.2744 12.2794 35.3674 12.6452 35.4615 12.9969C35.5636 12.6283 35.6636 12.252 35.7614 11.8664C35.8578 11.4803 35.9528 11.1011 36.0435 10.7283C36.1329 10.3562 36.2209 9.99465 36.3011 9.64651C36.3827 9.29894 36.4552 8.97266 36.5193 8.67175H37.7866C37.8513 8.97266 37.9195 9.29894 37.999 9.64651C38.0764 9.99465 38.1589 10.3562 38.2461 10.7283C38.3305 11.1011 38.4227 11.4803 38.5149 11.8664C38.6098 12.252 38.707 12.6283 38.8077 12.9969C38.9026 12.6452 38.997 12.2794 39.0919 11.8974C39.1869 11.5154 39.2763 11.1371 39.3579 10.7607C39.4396 10.3829 39.5184 10.0157 39.5944 9.6591C39.6697 9.30329 39.738 8.97266 39.8005 8.67175H41.6217C41.4487 9.32651 41.2706 9.9735 41.0856 10.6134C40.899 11.2561 40.721 11.8636 40.543 12.4373C40.3677 13.0131 40.1946 13.5424 40.0264 14.03C39.8569 14.5157 39.7006 14.9342 39.5614 15.2866H38.1983C38.0012 14.6496 37.8098 14.0167 37.6212 13.3873C37.4333 12.7601 37.263 12.1258 37.1054 11.4887Z" fill="white"/>
<mask id="mask6_130_535" style="mask-type:luminance" maskUnits="userSpaceOnUse" x="32" y="8" width="10" height="8">
<path d="M39.8006 8.67175H41.6219C41.4488 9.32651 41.2707 9.9735 41.0856 10.6133C40.8992 11.2561 40.7211 11.8637 40.543 12.4373C40.3678 13.0131 40.1948 13.5424 40.0264 14.03C39.8569 14.5157 39.7007 14.9341 39.5614 15.2866H38.1983C38.0013 14.6496 37.8099 14.0165 37.6213 13.3872C37.4334 12.7601 37.2631 12.1258 37.1055 11.4887C36.9485 12.1258 36.7831 12.7601 36.6067 13.3872C36.4307 14.0165 36.2434 14.6496 36.0499 15.2866H34.6869C34.5454 14.9341 34.3913 14.5157 34.2266 14.03C34.0606 13.5424 33.891 13.0131 33.713 12.4373C33.537 11.8637 33.3569 11.2561 33.1725 10.6133C32.9875 9.9735 32.808 9.32651 32.6364 8.67175H34.4813C34.5427 8.97266 34.6123 9.30318 34.6876 9.6591C34.7622 10.0157 34.8409 10.3829 34.9234 10.7606C35.0056 11.137 35.0937 11.5154 35.1837 11.8974C35.2745 12.2794 35.3675 12.6452 35.4616 12.9969C35.5636 12.6283 35.6636 12.2518 35.7614 11.8664C35.8578 11.4803 35.9529 11.1011 36.0436 10.7283C36.1329 10.3561 36.2209 9.99454 36.3012 9.64651C36.3828 9.29894 36.4554 8.97266 36.5193 8.67175H37.7867C37.8513 8.97266 37.9196 9.29894 37.9991 9.64651C38.0765 9.99454 38.159 10.3561 38.2461 10.7283C38.3307 11.1011 38.4227 11.4803 38.515 11.8664C38.61 12.2518 38.7072 12.6283 38.8077 12.9969C38.9027 12.6452 38.997 12.2794 39.092 11.8974C39.1871 11.5154 39.2764 11.137 39.358 10.7606C39.4397 10.3829 39.5185 10.0157 39.5944 9.6591C39.6698 9.30318 39.7381 8.97266 39.8006 8.67175Z" fill="white"/>
</mask>
<g mask="url(#mask6_130_535)">
<path fill-rule="evenodd" clip-rule="evenodd" d="M-83.8016 33.8613L162.863 33.8613L162.863 -315.58H-83.8016L-83.8016 33.8613Z" fill="white"/>
</g>
<mask id="mask7_130_535" style="mask-type:luminance" maskUnits="userSpaceOnUse" x="32" y="8" width="10" height="8">
<path d="M39.8006 8.67175H41.6219C41.4488 9.32651 41.2707 9.9735 41.0856 10.6133C40.8992 11.2561 40.7211 11.8637 40.543 12.4373C40.3678 13.0131 40.1948 13.5424 40.0264 14.03C39.8569 14.5157 39.7007 14.9341 39.5614 15.2866H38.1983C38.0013 14.6496 37.8099 14.0165 37.6213 13.3872C37.4334 12.7601 37.2631 12.1258 37.1055 11.4887C36.9485 12.1258 36.7831 12.7601 36.6067 13.3872C36.4307 14.0165 36.2434 14.6496 36.0499 15.2866H34.6869C34.5454 14.9341 34.3913 14.5157 34.2266 14.03C34.0606 13.5424 33.891 13.0131 33.713 12.4373C33.537 11.8637 33.3569 11.2561 33.1725 10.6133C32.9875 9.9735 32.808 9.32651 32.6364 8.67175H34.4813C34.5427 8.97266 34.6123 9.30318 34.6876 9.6591C34.7622 10.0157 34.8409 10.3829 34.9234 10.7606C35.0056 11.137 35.0937 11.5154 35.1837 11.8974C35.2745 12.2794 35.3675 12.6452 35.4616 12.9969C35.5636 12.6283 35.6636 12.2518 35.7614 11.8664C35.8578 11.4803 35.9529 11.1011 36.0436 10.7283C36.1329 10.3561 36.2209 9.99454 36.3012 9.64651C36.3828 9.29894 36.4554 8.97266 36.5193 8.67175H37.7867C37.8513 8.97266 37.9196 9.29894 37.9991 9.64651C38.0765 9.99454 38.159 10.3561 38.2461 10.7283C38.3307 11.1011 38.4227 11.4803 38.515 11.8664C38.61 12.2518 38.7072 12.6283 38.8077 12.9969C38.9027 12.6452 38.997 12.2794 39.092 11.8974C39.1871 11.5154 39.2764 11.137 39.358 10.7606C39.4397 10.3829 39.5185 10.0157 39.5944 9.6591C39.6698 9.30318 39.7381 8.97266 39.8006 8.67175Z" fill="white"/>
</mask>
<g mask="url(#mask7_130_535)">
<path fill-rule="evenodd" clip-rule="evenodd" d="M29.6997 18.2227H44.5582V5.73476L29.6997 5.73476V18.2227Z" fill="white"/>
</g>
<path fill-rule="evenodd" clip-rule="evenodd" d="M42.8594 15.2842H44.6074V8.67071H42.8594V15.2842Z" fill="white"/>
<mask id="mask8_130_535" style="mask-type:luminance" maskUnits="userSpaceOnUse" x="42" y="8" width="3" height="8">
<path d="M42.8594 15.2842V8.67071H44.6075V15.2842H42.8594Z" fill="white"/>
</mask>
<g mask="url(#mask8_130_535)">
<path fill-rule="evenodd" clip-rule="evenodd" d="M-83.8016 33.8613L162.863 33.8613L162.863 -315.58H-83.8016L-83.8016 33.8613Z" fill="white"/>
</g>
<mask id="mask9_130_535" style="mask-type:luminance" maskUnits="userSpaceOnUse" x="42" y="8" width="3" height="8">
<path d="M42.8594 15.2842V8.67071H44.6075V15.2842H42.8594Z" fill="white"/>
</mask>
<g mask="url(#mask9_130_535)">
<path fill-rule="evenodd" clip-rule="evenodd" d="M39.9227 18.2202H47.5437V5.7337H39.9227V18.2202Z" fill="white"/>
</g>
<path fill-rule="evenodd" clip-rule="evenodd" d="M45.9978 7.02133L47.7472 6.68943V8.67396H49.4784V10.2301H47.7472V12.5572C47.7472 12.9511 47.8119 13.2684 47.9407 13.5002C48.0695 13.7349 48.3305 13.8526 48.7212 13.8526C48.9104 13.8526 49.1046 13.8357 49.3031 13.7969C49.5036 13.7588 49.6852 13.7046 49.8505 13.6391L50.0962 15.0979C49.8843 15.1908 49.6486 15.2698 49.3918 15.3374C49.132 15.4037 48.8176 15.4375 48.4403 15.4375C47.9619 15.4375 47.5671 15.3685 47.2539 15.2289C46.9401 15.0929 46.6895 14.9005 46.5024 14.651C46.3152 14.4058 46.1843 14.1034 46.1091 13.7532C46.033 13.4001 45.9978 13.0097 45.9978 12.5832V7.02133Z" fill="white"/>
<mask id="mask10_130_535" style="mask-type:luminance" maskUnits="userSpaceOnUse" x="45" y="6" width="6" height="10">
<path d="M45.9978 7.02133L47.7471 6.68943V8.67396H49.4783V10.2301H47.7471V12.5572C47.7471 12.9511 47.8119 13.2683 47.9407 13.5002C48.0695 13.7349 48.3305 13.8525 48.721 13.8525C48.9103 13.8525 49.1046 13.8357 49.3031 13.7969C49.5036 13.7587 49.6852 13.7046 49.8504 13.6391L50.0961 15.0978C49.8843 15.1908 49.6485 15.2698 49.3918 15.3374C49.132 15.4037 48.8176 15.4375 48.4403 15.4375C47.9619 15.4375 47.567 15.3685 47.2539 15.2289C46.94 15.0928 46.6895 14.9005 46.5024 14.6511C46.3152 14.4058 46.1843 14.1035 46.109 13.7532C46.033 13.4001 45.9978 13.0096 45.9978 12.5833V7.02133Z" fill="white"/>
</mask>
<g mask="url(#mask10_130_535)">
<path fill-rule="evenodd" clip-rule="evenodd" d="M-83.8018 33.8613L162.863 33.8613L162.863 -315.58H-83.8018L-83.8018 33.8613Z" fill="white"/>
</g>
<mask id="mask11_130_535" style="mask-type:luminance" maskUnits="userSpaceOnUse" x="45" y="6" width="6" height="10">
<path d="M45.9978 7.02133L47.7471 6.68943V8.67396H49.4783V10.2301H47.7471V12.5572C47.7471 12.9511 47.8119 13.2683 47.9407 13.5002C48.0695 13.7349 48.3305 13.8525 48.721 13.8525C48.9103 13.8525 49.1046 13.8357 49.3031 13.7969C49.5036 13.7587 49.6852 13.7046 49.8504 13.6391L50.0961 15.0978C49.8843 15.1908 49.6485 15.2698 49.3918 15.3374C49.132 15.4037 48.8176 15.4375 48.4403 15.4375C47.9619 15.4375 47.567 15.3685 47.2539 15.2289C46.94 15.0928 46.6895 14.9005 46.5024 14.6511C46.3152 14.4058 46.1843 14.1035 46.109 13.7532C46.033 13.4001 45.9978 13.0096 45.9978 12.5833V7.02133Z" fill="white"/>
</mask>
<g mask="url(#mask11_130_535)">
<path fill-rule="evenodd" clip-rule="evenodd" d="M43.0613 18.374H53.0327V3.75285H43.0613V18.374Z" fill="white"/>
</g>
<path fill-rule="evenodd" clip-rule="evenodd" d="M50.7145 11.9807C50.7145 11.5021 50.7871 11.0511 50.932 10.6283C51.0769 10.204 51.286 9.83618 51.5598 9.52109C51.8342 9.20612 52.1663 8.95794 52.5589 8.77267C52.9495 8.59013 53.3956 8.49566 53.8967 8.49566C54.2253 8.49566 54.5272 8.52883 54.8016 8.59081C55.0762 8.65497 55.3436 8.74453 55.6003 8.86072L55.2373 10.357C55.0719 10.2907 54.8924 10.2329 54.6954 10.1808C54.4997 10.1314 54.2795 10.1054 54.0375 10.1054C53.521 10.1054 53.1345 10.278 52.8819 10.6219C52.625 10.9666 52.4998 11.4184 52.4998 11.9807C52.4998 12.5747 52.6187 13.0363 52.8595 13.3634C53.0959 13.6897 53.5139 13.854 54.1085 13.854C54.3203 13.854 54.5462 13.832 54.7904 13.7905C55.0325 13.7482 55.2555 13.6819 55.461 13.589L55.706 15.1239C55.5017 15.2162 55.2485 15.2937 54.9432 15.362C54.6363 15.4285 54.3005 15.4629 53.9333 15.4629C53.3695 15.4629 52.8827 15.3713 52.4766 15.1915C52.07 15.0118 51.7342 14.7665 51.4724 14.4564C51.2086 14.1457 51.0186 13.7793 50.8969 13.3563C50.7751 12.9328 50.7145 12.4734 50.7145 11.9807Z" fill="white"/>
<mask id="mask12_130_535" style="mask-type:luminance" maskUnits="userSpaceOnUse" x="50" y="8" width="6" height="8">
<path d="M52.5589 8.77266C52.9495 8.59013 53.3956 8.49566 53.8967 8.49566C54.2253 8.49566 54.5272 8.52872 54.8016 8.5907C55.076 8.65497 55.3436 8.74441 55.6003 8.86072L55.2373 10.3569C55.0718 10.2907 54.8924 10.2329 54.6953 10.1808C54.4996 10.1313 54.2795 10.1053 54.0373 10.1053C53.521 10.1053 53.1345 10.278 52.8819 10.6219C52.625 10.9665 52.4998 11.4182 52.4998 11.9807C52.4998 12.5747 52.6188 13.0363 52.8595 13.3634C53.0959 13.6897 53.5138 13.854 54.1084 13.854C54.3203 13.854 54.5462 13.832 54.7904 13.7905C55.0325 13.7482 55.2555 13.6819 55.4609 13.5888L55.7059 15.1239C55.5018 15.2162 55.2485 15.2936 54.943 15.362C54.6363 15.4284 54.3006 15.4629 53.9333 15.4629C53.3694 15.4629 52.8827 15.3712 52.4766 15.1914C52.07 15.0117 51.7342 14.7665 51.4723 14.4566C51.2087 14.1457 51.0186 13.7793 50.8969 13.3563C50.7751 12.9328 50.7145 12.4733 50.7145 11.9807C50.7145 11.5021 50.7871 11.0511 50.932 10.6283C51.0769 10.204 51.286 9.83607 51.5597 9.52097C51.8342 9.206 52.1663 8.95794 52.5589 8.77266Z" fill="white"/>
</mask>
<g mask="url(#mask12_130_535)">
<path fill-rule="evenodd" clip-rule="evenodd" d="M-83.8016 33.8623L162.863 33.8623L162.863 -315.579H-83.8016L-83.8016 33.8623Z" fill="white"/>
</g>
<mask id="mask13_130_535" style="mask-type:luminance" maskUnits="userSpaceOnUse" x="50" y="8" width="6" height="8">
<path d="M52.5589 8.77266C52.9495 8.59013 53.3956 8.49566 53.8967 8.49566C54.2253 8.49566 54.5272 8.52872 54.8016 8.5907C55.076 8.65497 55.3436 8.74441 55.6003 8.86072L55.2373 10.3569C55.0718 10.2907 54.8924 10.2329 54.6953 10.1808C54.4996 10.1313 54.2795 10.1053 54.0373 10.1053C53.521 10.1053 53.1345 10.278 52.8819 10.6219C52.625 10.9665 52.4998 11.4182 52.4998 11.9807C52.4998 12.5747 52.6188 13.0363 52.8595 13.3634C53.0959 13.6897 53.5138 13.854 54.1084 13.854C54.3203 13.854 54.5462 13.832 54.7904 13.7905C55.0325 13.7482 55.2555 13.6819 55.4609 13.5888L55.7059 15.1239C55.5018 15.2162 55.2485 15.2936 54.943 15.362C54.6363 15.4284 54.3006 15.4629 53.9333 15.4629C53.3694 15.4629 52.8827 15.3712 52.4766 15.1914C52.07 15.0117 51.7342 14.7665 51.4723 14.4566C51.2087 14.1457 51.0186 13.7793 50.8969 13.3563C50.7751 12.9328 50.7145 12.4733 50.7145 11.9807C50.7145 11.5021 50.7871 11.0511 50.932 10.6283C51.0769 10.204 51.286 9.83607 51.5597 9.52097C51.8342 9.206 52.1663 8.95794 52.5589 8.77266Z" fill="white"/>
</mask>
<g mask="url(#mask13_130_535)">
<path fill-rule="evenodd" clip-rule="evenodd" d="M47.7781 18.3994H58.6423V5.5591H47.7781V18.3994Z" fill="white"/>
</g>
<path fill-rule="evenodd" clip-rule="evenodd" d="M56.8369 15.2842V7.01874L58.587 6.6897V8.69825C58.7038 8.65661 58.8537 8.61647 59.0395 8.5785C59.2224 8.5411 59.4019 8.52132 59.5736 8.52132C60.0739 8.52132 60.4897 8.59531 60.8232 8.74125C61.1555 8.88787 61.4236 9.0958 61.622 9.36422C61.8233 9.63138 61.9626 9.95127 62.0464 10.3185C62.1273 10.6884 62.168 11.1001 62.168 11.5525V15.2842H60.4186V11.7773C60.4186 11.174 60.3462 10.7469 60.202 10.494C60.057 10.2451 59.7882 10.119 59.3976 10.119C59.2387 10.119 59.0935 10.1339 58.9557 10.162C58.8192 10.1917 58.6961 10.224 58.587 10.2572V15.2842H56.8369Z" fill="white"/>
<mask id="mask14_130_535" style="mask-type:luminance" maskUnits="userSpaceOnUse" x="56" y="6" width="7" height="10">
<path d="M56.8369 7.01874L58.5869 6.6897V8.69836C58.7038 8.65661 58.8537 8.61647 59.0395 8.5785C59.2224 8.5411 59.4019 8.52143 59.5736 8.52143C60.0739 8.52143 60.4899 8.59543 60.8234 8.74125C61.1555 8.88798 61.4237 9.0958 61.622 9.36433C61.8232 9.63138 61.9627 9.95127 62.0464 10.3186C62.1273 10.6885 62.168 11.1001 62.168 11.5527V15.2842H60.4187V11.7773C60.4187 11.1741 60.3461 10.7469 60.202 10.494C60.057 10.2452 59.7882 10.119 59.3976 10.119C59.2387 10.119 59.0935 10.1339 58.9557 10.1622C58.8191 10.1917 58.6961 10.224 58.5869 10.2572V15.2842H56.8369V7.01874Z" fill="white"/>
</mask>
<g mask="url(#mask14_130_535)">
<path fill-rule="evenodd" clip-rule="evenodd" d="M-83.8016 33.8613L162.863 33.8613L162.863 -315.58H-83.8016L-83.8016 33.8613Z" fill="white"/>
</g>
<mask id="mask15_130_535" style="mask-type:luminance" maskUnits="userSpaceOnUse" x="56" y="6" width="7" height="10">
<path d="M56.8369 7.01874L58.5869 6.6897V8.69836C58.7038 8.65661 58.8537 8.61647 59.0395 8.5785C59.2224 8.5411 59.4019 8.52143 59.5736 8.52143C60.0739 8.52143 60.4899 8.59543 60.8234 8.74125C61.1555 8.88798 61.4237 9.0958 61.622 9.36433C61.8232 9.63138 61.9627 9.95127 62.0464 10.3186C62.1273 10.6885 62.168 11.1001 62.168 11.5527V15.2842H60.4187V11.7773C60.4187 11.1741 60.3461 10.7469 60.202 10.494C60.057 10.2452 59.7882 10.119 59.3976 10.119C59.2387 10.119 59.0935 10.1339 58.9557 10.1622C58.8191 10.1917 58.6961 10.224 58.5869 10.2572V15.2842H56.8369V7.01874Z" fill="white"/>
</mask>
<g mask="url(#mask15_130_535)">
<path fill-rule="evenodd" clip-rule="evenodd" d="M53.9004 18.2207H65.1045V3.75308H53.9004V18.2207Z" fill="white"/>
</g>
<path fill-rule="evenodd" clip-rule="evenodd" d="M4.07397 15.2861V9.29286C4.07397 9.29286 4.95358 8.54088 6.87749 8.54088C8.62825 8.54088 9.58964 9.47756 9.58964 11.5389V15.2861H7.84094V11.5389C7.84094 10.226 7.22724 10.1351 6.70297 10.1351C6.17871 10.1351 5.82759 10.4141 5.82759 10.4141V15.2861H4.07397Z" fill="white"/>
<mask id="mask16_130_535" style="mask-type:luminance" maskUnits="userSpaceOnUse" x="4" y="8" width="6" height="8">
<path d="M4.07397 9.29286C4.07397 9.29286 4.95358 8.54088 6.87749 8.54088C8.62825 8.54088 9.58952 9.47745 9.58952 11.5391V15.2861H7.84094V11.5391C7.84094 10.2259 7.22724 10.1351 6.70297 10.1351C6.17871 10.1351 5.82759 10.4142 5.82759 10.4142V15.2861H4.07397V9.29286Z" fill="white"/>
</mask>
<g mask="url(#mask16_130_535)">
<path fill-rule="evenodd" clip-rule="evenodd" d="M-83.8016 33.8613L162.863 33.8613L162.863 -315.58H-83.8016L-83.8016 33.8613Z" fill="white"/>
</g>
<mask id="mask17_130_535" style="mask-type:luminance" maskUnits="userSpaceOnUse" x="4" y="8" width="6" height="8">
<path d="M4.07397 9.29286C4.07397 9.29286 4.95358 8.54088 6.87749 8.54088C8.62825 8.54088 9.58952 9.47745 9.58952 11.5391V15.2861H7.84094V11.5391C7.84094 10.2259 7.22724 10.1351 6.70297 10.1351C6.17871 10.1351 5.82759 10.4142 5.82759 10.4142V15.2861H4.07397V9.29286Z" fill="white"/>
</mask>
<g mask="url(#mask17_130_535)">
<path fill-rule="evenodd" clip-rule="evenodd" d="M1.1377 18.2227H12.5261V5.60444H1.1377L1.1377 18.2227Z" fill="white"/>
</g>
<path fill-rule="evenodd" clip-rule="evenodd" d="M0.779297 15.2861L0.779297 7.01927L2.53007 6.68939L2.53007 15.2861H0.779297Z" fill="white"/>
<mask id="mask18_130_535" style="mask-type:luminance" maskUnits="userSpaceOnUse" x="0" y="6" width="3" height="10">
<path d="M0.779297 7.01938L2.53007 6.68939L2.53007 15.2861H0.779297L0.779297 7.01938Z" fill="white"/>
</mask>
<g mask="url(#mask18_130_535)">
<path fill-rule="evenodd" clip-rule="evenodd" d="M-83.8016 33.8613L162.863 33.8613L162.863 -315.58H-83.8016L-83.8016 33.8613Z" fill="white"/>
</g>
<mask id="mask19_130_535" style="mask-type:luminance" maskUnits="userSpaceOnUse" x="0" y="6" width="3" height="10">
<path d="M0.779297 7.01938L2.53007 6.68939L2.53007 15.2861H0.779297L0.779297 7.01938Z" fill="white"/>
</mask>
<g mask="url(#mask19_130_535)">
<path fill-rule="evenodd" clip-rule="evenodd" d="M-2.15735 18.2227H5.46647L5.46647 3.75298H-2.15735L-2.15735 18.2227Z" fill="white"/>
</g>
<path fill-rule="evenodd" clip-rule="evenodd" d="M21.4526 12.4541H17.5146C17.5146 12.4541 17.6026 13.8587 19.3513 13.8587C20.2268 13.8587 21.1021 13.5788 21.1021 13.5788L21.2774 15.0792C21.2774 15.0792 20.4027 15.4507 19.1782 15.4507C17.4267 15.4507 15.8518 14.5154 15.8518 11.8931C15.8518 9.83094 17.0762 8.52153 18.8264 8.52153C21.4526 8.52153 21.6285 11.3278 21.4526 12.4541ZM18.7405 9.83094C17.6026 9.83094 17.5146 11.1417 17.5146 11.1417H19.9635C19.9635 11.1417 19.8777 9.83094 18.7405 9.83094Z" fill="white"/>
<mask id="mask20_130_535" style="mask-type:luminance" maskUnits="userSpaceOnUse" x="15" y="8" width="7" height="8">
<path d="M15.8521 11.893C15.8521 9.83083 17.0765 8.52142 18.8266 8.52142C21.4527 8.52142 21.6286 11.3278 21.4527 12.454H17.5149C17.5149 12.454 17.6028 13.8585 19.3514 13.8585C20.2269 13.8585 21.1023 13.5787 21.1023 13.5787L21.2775 15.0791C21.2775 15.0791 20.4028 15.4507 19.1784 15.4507C17.4269 15.4507 15.8521 14.5154 15.8521 11.893ZM18.7407 9.83083C17.6028 9.83083 17.5149 11.1417 17.5149 11.1417H19.9637C19.9637 11.1417 19.8778 9.83083 18.7407 9.83083Z" fill="white"/>
</mask>
<g mask="url(#mask20_130_535)">
<path fill-rule="evenodd" clip-rule="evenodd" d="M-83.8016 33.8623L162.863 33.8623L162.863 -315.579H-83.8016L-83.8016 33.8623Z" fill="white"/>
</g>
<mask id="mask21_130_535" style="mask-type:luminance" maskUnits="userSpaceOnUse" x="15" y="8" width="7" height="8">
<path d="M15.8521 11.893C15.8521 9.83083 17.0765 8.52142 18.8266 8.52142C21.4527 8.52142 21.6286 11.3278 21.4527 12.454H17.5149C17.5149 12.454 17.6028 13.8585 19.3514 13.8585C20.2269 13.8585 21.1023 13.5787 21.1023 13.5787L21.2775 15.0791C21.2775 15.0791 20.4028 15.4507 19.1784 15.4507C17.4269 15.4507 15.8521 14.5154 15.8521 11.893ZM18.7407 9.83083C17.6028 9.83083 17.5149 11.1417 17.5149 11.1417H19.9637C19.9637 11.1417 19.8778 9.83083 18.7407 9.83083Z" fill="white"/>
</mask>
<g mask="url(#mask21_130_535)">
<path fill-rule="evenodd" clip-rule="evenodd" d="M12.9155 18.3872H24.4382V5.585H12.9155V18.3872Z" fill="white"/>
</g>
<mask id="mask22_130_535" style="mask-type:luminance" maskUnits="userSpaceOnUse" x="64" y="5" width="12" height="16">
<path d="M64.4871 6.69118C64.4871 6.29157 69.5204 5.42923 72.8961 5.42923C74.3601 5.42923 75.5121 5.59141 75.8068 6.02372C77.3268 8.0309 66.6264 20.6235 65.7348 20.2415C65.0198 20.0505 71.4397 12.0353 70.3695 8.78996C69.8353 7.07385 64.4871 7.26474 64.4871 6.69118Z" fill="white"/>
</mask>
<g mask="url(#mask22_130_535)">
<path fill-rule="evenodd" clip-rule="evenodd" d="M61.5505 23.1865H78.8907V2.49275H61.5505V23.1865Z" fill="#ED342B"/>
</g>
<mask id="mask23_130_535" style="mask-type:luminance" maskUnits="userSpaceOnUse" x="70" y="0" width="5" height="5">
<path d="M70.1118 2.61207C70.1118 1.30664 71.1004 0.250194 72.3188 0.250194C73.5384 0.250194 74.5257 1.30664 74.5257 2.61207C74.5257 3.91817 73.5384 4.97461 72.3188 4.97461C71.1004 4.97461 70.1118 3.91817 70.1118 2.61207Z" fill="white"/>
</mask>
<g mask="url(#mask23_130_535)">
<path fill-rule="evenodd" clip-rule="evenodd" d="M67.3153 7.771L77.3224 7.771V-2.54692H67.3153V7.771Z" fill="#ED342B"/>
</g>
</svg>
