<svg width="33" height="21" viewBox="0 0 33 21" fill="none" xmlns="http://www.w3.org/2000/svg">
<path d="M32.7793 10.25C32.7793 15.7747 28.311 20.25 22.8002 20.25C17.2894 20.25 12.821 15.7747 12.821 10.25C12.821 4.72533 17.2825 0.25 22.7932 0.25C28.304 0.25 32.7793 4.72533 32.7793 10.25Z" fill="#F79F1A"/>
<path d="M20.4583 10.25C20.4583 15.7747 15.9899 20.25 10.4792 20.25C4.96838 20.25 0.5 15.7747 0.5 10.25C0.5 4.72533 4.96838 0.25 10.4792 0.25C15.9899 0.25 20.4583 4.72533 20.4583 10.25Z" fill="#EA001B"/>
<path d="M16.6362 2.37646C14.3082 4.20412 12.8141 7.05332 12.8141 10.25C12.8141 13.4467 14.3082 16.2959 16.6362 18.1235C18.9642 16.2959 20.4583 13.4467 20.4583 10.25C20.4583 7.05332 18.9642 4.21107 16.6362 2.37646Z" fill="#FF5F01"/>
</svg>
