<svg width="91" height="17" viewBox="0 0 91 17" fill="none" xmlns="http://www.w3.org/2000/svg">
<path d="M13.7136 1.77393H1.70149C1.2981 1.77393 0.954468 2.11756 0.954468 2.53589V3.89546C0.954468 4.31379 1.2981 4.65742 1.70149 4.65742H13.7136C14.1319 4.65742 14.4606 4.31379 14.4755 3.89546V2.55083C14.4755 2.11755 14.1319 1.77393 13.7136 1.77393ZM13.7136 9.31882H1.70149C1.50726 9.31882 1.31304 9.39352 1.17857 9.54293C1.02917 9.69233 0.954468 9.87161 0.954468 10.0808V11.4404C0.954468 11.8587 1.2981 12.2023 1.70149 12.2023H13.7136C14.1319 12.2023 14.4606 11.8736 14.4755 11.4404V10.0808C14.4606 9.64751 14.1319 9.31882 13.7136 9.31882ZM8.46948 13.0838H1.70149C1.50726 13.0838 1.31304 13.1585 1.17857 13.3079C1.04411 13.4573 0.954468 13.6366 0.954468 13.8458V15.2053C0.954468 15.6237 1.2981 15.9673 1.70149 15.9673H8.45454C8.87287 15.9673 9.20156 15.6237 9.20156 15.2203V13.8607C9.2165 13.4125 8.88781 13.0689 8.46948 13.0838ZM14.4755 5.5389H1.70149C1.50726 5.5389 1.31304 5.6136 1.17857 5.76301C1.04411 5.91241 0.954468 6.0917 0.954468 6.30086V7.66044C0.954468 8.07877 1.2981 8.4224 1.70149 8.4224H14.4606C14.8789 8.4224 15.2076 8.07877 15.2076 7.66044V6.30086C15.2225 5.88253 14.8789 5.55384 14.4755 5.5389Z" fill="#00C3F7"/>
<path d="M28.4448 4.82176C28.0713 4.43331 27.6381 4.1345 27.145 3.92534C26.652 3.71617 26.1291 3.61159 25.5912 3.61159C25.0683 3.59665 24.5603 3.71617 24.0822 3.94027C23.7685 4.08968 23.4846 4.29884 23.2456 4.55283V4.31378C23.2456 4.19426 23.2008 4.07474 23.1261 3.9851C23.0514 3.89545 22.9318 3.83569 22.7974 3.83569H21.139C21.0195 3.83569 20.8999 3.88051 20.8252 3.9851C20.7356 4.07474 20.6908 4.19426 20.7057 4.31378V15.4892C20.7057 15.6087 20.7505 15.7282 20.8252 15.8179C20.9149 15.9075 21.0195 15.9523 21.139 15.9523H22.8422C22.9617 15.9523 23.0663 15.9075 23.1559 15.8179C23.2456 15.7432 23.3053 15.6237 23.2904 15.4892V11.6645C23.5294 11.9334 23.8432 12.1276 24.1868 12.2471C24.635 12.4115 25.0982 12.5011 25.5763 12.5011C26.1141 12.5011 26.652 12.3965 27.145 12.1874C27.6381 11.9782 28.0863 11.6794 28.4598 11.2909C28.8482 10.8876 29.147 10.4095 29.3562 9.88655C29.5952 9.30387 29.6998 8.67638 29.6849 8.04888C29.6998 7.42139 29.5803 6.79389 29.3562 6.19627C29.1321 5.70324 28.8333 5.22515 28.4448 4.82176ZM26.9209 8.8706C26.8313 9.10965 26.6968 9.31881 26.5175 9.51304C26.1739 9.88655 25.6809 10.0957 25.1729 10.0957C24.9189 10.0957 24.6649 10.0509 24.4259 9.93137C24.2018 9.82678 23.9926 9.69232 23.8133 9.51304C23.634 9.33375 23.4996 9.10965 23.4099 8.8706C23.2157 8.36263 23.2157 7.80984 23.4099 7.30186C23.4996 7.06282 23.649 6.85365 23.8133 6.67437C23.9926 6.49508 24.2018 6.34568 24.4259 6.2411C24.6649 6.13651 24.9189 6.07675 25.1729 6.07675C25.4418 6.07675 25.6809 6.12157 25.9348 6.2411C26.159 6.34568 26.3681 6.48014 26.5325 6.65942C26.7117 6.83871 26.8313 7.04788 26.9359 7.28692C27.1151 7.80984 27.1002 8.36263 26.9209 8.8706ZM38.8135 3.85063H37.1252C37.0057 3.85063 36.8861 3.89545 36.8114 3.9851C36.7218 4.07474 36.677 4.19426 36.677 4.32873V4.53789C36.4678 4.2839 36.1989 4.08968 35.915 3.95522C35.4519 3.73111 34.9439 3.62653 34.4359 3.62653C33.3453 3.62653 32.3144 4.0598 31.5375 4.82176C31.1341 5.22515 30.8204 5.70324 30.6112 6.22615C30.3721 6.80883 30.2526 7.43632 30.2676 8.07876C30.2526 8.70626 30.3721 9.33375 30.6112 9.93137C30.8353 10.4543 31.1341 10.9324 31.5375 11.3358C32.2994 12.1127 33.3453 12.5459 34.421 12.5459C34.929 12.5609 35.4369 12.4414 35.9001 12.2172C36.1839 12.0678 36.4678 11.8736 36.677 11.6346V11.8587C36.677 11.9782 36.7218 12.0977 36.8114 12.1874C36.9011 12.2621 37.0057 12.3218 37.1252 12.3218H38.8135C38.933 12.3218 39.0525 12.277 39.1272 12.1874C39.2168 12.0977 39.2617 11.9782 39.2617 11.8587V4.34366C39.2617 4.22414 39.2168 4.10462 39.1421 4.01498C39.0525 3.91039 38.933 3.85063 38.8135 3.85063ZM36.5276 8.8706C36.4379 9.10965 36.3035 9.31881 36.1242 9.51304C35.9449 9.69232 35.7507 9.84173 35.5266 9.94631C35.0485 10.1704 34.4957 10.1704 34.0176 9.94631C33.7935 9.84173 33.5843 9.69232 33.405 9.51304C33.2258 9.33375 33.0913 9.10965 33.0016 8.8706C32.8224 8.36263 32.8224 7.80984 33.0016 7.30186C33.0913 7.06282 33.2258 6.86859 33.405 6.67437C33.5843 6.49508 33.7785 6.34568 34.0176 6.2411C34.4957 6.01699 35.0485 6.01699 35.5116 6.2411C35.7357 6.34568 35.9449 6.48014 36.1092 6.65942C36.2736 6.83871 36.4081 7.04788 36.5126 7.28692C36.7218 7.80984 36.7218 8.36263 36.5276 8.8706ZM55.6363 7.85465C55.3973 7.64549 55.1134 7.46621 54.8146 7.34668C54.5009 7.21222 54.1572 7.12258 53.8285 7.04787L52.5437 6.79389C52.215 6.73412 51.9759 6.64449 51.8564 6.5399C51.7518 6.4652 51.6771 6.34568 51.6771 6.21121C51.6771 6.07675 51.7518 5.95723 51.9162 5.85264C52.1403 5.73312 52.3793 5.67336 52.6333 5.6883C52.962 5.6883 53.2907 5.763 53.5895 5.88253C53.8883 6.01699 54.1722 6.15145 54.4411 6.33074C54.8146 6.56978 55.1433 6.52496 55.3674 6.25604L55.98 5.55384C56.0995 5.43431 56.1592 5.28491 56.1742 5.12057C56.1592 4.94128 56.0696 4.79188 55.9351 4.67235C55.6812 4.44825 55.2628 4.2092 54.71 3.97015C54.1572 3.73111 53.455 3.61159 52.6333 3.61159C52.1253 3.59665 51.6323 3.67135 51.1542 3.82075C50.7508 3.95521 50.3624 4.14944 50.0187 4.40343C49.705 4.64247 49.466 4.94128 49.2867 5.29985C49.1223 5.64348 49.0327 6.01699 49.0327 6.3905C49.0327 7.0927 49.2418 7.66043 49.6602 8.07876C50.0785 8.49709 50.6313 8.78096 51.3186 8.91542L52.6632 9.21423C52.9471 9.25905 53.2459 9.34869 53.5148 9.48316C53.6642 9.54292 53.7538 9.69232 53.7538 9.85666C53.7538 10.0061 53.6791 10.1405 53.5148 10.2601C53.3505 10.3796 53.0815 10.4543 52.723 10.4543C52.3644 10.4543 51.9909 10.3796 51.6622 10.2152C51.3484 10.0658 51.0646 9.87161 50.7956 9.6475C50.6761 9.55786 50.5566 9.48316 50.4072 9.4234C50.2578 9.37857 50.0636 9.4234 49.8693 9.58774L49.1373 10.1405C48.9281 10.2899 48.8235 10.5439 48.8833 10.783C48.9281 11.037 49.1223 11.276 49.4958 11.5599C50.4221 12.1874 51.5277 12.5161 52.6483 12.4862C53.1712 12.4862 53.6941 12.4264 54.1871 12.277C54.6204 12.1425 55.0238 11.9483 55.3823 11.6794C55.711 11.4403 55.98 11.1266 56.1592 10.7531C56.3385 10.3945 56.4282 10.0061 56.4282 9.60268C56.4431 9.24411 56.3684 8.88554 56.219 8.55685C56.0696 8.31781 55.8754 8.06382 55.6363 7.85465ZM63.0169 9.90149C62.9422 9.76703 62.8077 9.67738 62.6434 9.6475C62.494 9.6475 62.3296 9.69232 62.2101 9.78196C62.0009 9.91643 61.7619 9.99113 61.5228 10.0061C61.4481 10.0061 61.3585 9.99113 61.2838 9.97619C61.1942 9.96125 61.1195 9.91643 61.0597 9.85666C60.985 9.78196 60.9252 9.69232 60.8804 9.60268C60.8206 9.45328 60.7908 9.30387 60.8057 9.15447V6.09169H62.987C63.1215 6.09169 63.241 6.03193 63.3306 5.94229C63.4203 5.85264 63.48 5.74806 63.48 5.6136V4.31378C63.48 4.17932 63.4352 4.0598 63.3306 3.9851C63.241 3.89545 63.1215 3.85063 63.0019 3.85063H60.8057V1.75898C60.8057 1.63946 60.7609 1.50499 60.6712 1.43029C60.5816 1.35559 60.477 1.31077 60.3575 1.29583H58.6543C58.5348 1.29583 58.4152 1.34065 58.3256 1.43029C58.236 1.51993 58.1762 1.63946 58.1762 1.75898V3.85063H57.2051C57.0855 3.85063 56.966 3.89545 56.8764 4.00004C56.8017 4.08968 56.7569 4.2092 56.7569 4.32873V5.62854C56.7569 5.74806 56.8017 5.86759 56.8764 5.95723C56.9511 6.06181 57.0706 6.10663 57.2051 6.10663H58.1762V9.75208C58.1613 10.1854 58.2509 10.6186 58.4302 11.0071C58.5945 11.3358 58.8037 11.6196 59.0876 11.8587C59.3565 12.0828 59.6702 12.2471 60.0139 12.3368C60.3575 12.4414 60.7161 12.5011 61.0746 12.5011C61.5378 12.5011 62.0159 12.4264 62.4641 12.277C62.8824 12.1425 63.2559 11.9035 63.5547 11.5898C63.749 11.3955 63.7639 11.0818 63.6145 10.8577L63.0169 9.90149ZM72.25 3.85063H70.5618C70.4423 3.85063 70.3377 3.89545 70.248 3.9851C70.1584 4.07474 70.1136 4.19426 70.1136 4.32873V4.53789C69.9044 4.2839 69.6504 4.08968 69.3516 3.95522C68.8885 3.73111 68.3805 3.62653 67.8725 3.62653C66.7819 3.62653 65.751 4.0598 64.9741 4.82176C64.5707 5.22515 64.2569 5.70324 64.0478 6.22615C63.8087 6.80883 63.6892 7.43632 63.7041 8.06382C63.6892 8.69131 63.8087 9.31882 64.0478 9.91643C64.2569 10.4393 64.5856 10.9174 64.9741 11.3208C65.736 12.0977 66.7669 12.531 67.8576 12.531C68.3655 12.5459 68.8735 12.4264 69.3367 12.2172C69.6355 12.0678 69.9044 11.8736 70.1136 11.6346V11.8587C70.1136 11.9782 70.1584 12.0977 70.248 12.1724C70.3377 12.2621 70.4423 12.3069 70.5618 12.3069H72.25C72.504 12.3069 72.6982 12.1127 72.6982 11.8587V4.34366C72.6982 4.22414 72.6534 4.10462 72.5787 4.01498C72.504 3.91039 72.3845 3.85063 72.25 3.85063ZM69.9791 8.8706C69.8895 9.10965 69.755 9.31881 69.5757 9.51304C69.3964 9.69232 69.2022 9.84173 68.9781 9.94631C68.739 10.0509 68.4851 10.1107 68.2161 10.1107C67.9472 10.1107 67.7082 10.0509 67.4691 9.94631C67.245 9.84173 67.0358 9.69232 66.8566 9.51304C66.6773 9.33375 66.5428 9.10965 66.4681 8.8706C66.2888 8.36263 66.2888 7.80984 66.4681 7.30186C66.5578 7.06282 66.6922 6.85365 66.8566 6.67437C67.0358 6.49508 67.245 6.34568 67.4691 6.2411C67.7082 6.13651 67.9621 6.07675 68.2161 6.07675C68.4701 6.07675 68.7241 6.12157 68.9781 6.2411C69.2022 6.34568 69.3964 6.48014 69.5757 6.65942C69.755 6.83871 69.8895 7.04788 69.9791 7.28692C70.1733 7.79489 70.1733 8.36263 69.9791 8.8706ZM81.5131 9.78196L80.542 9.03494C80.3627 8.88554 80.1834 8.84072 80.034 8.90048C79.8995 8.96024 79.78 9.04989 79.6754 9.15447C79.4662 9.40846 79.2123 9.63256 78.9433 9.82679C78.6445 9.99113 78.3308 10.0808 78.0021 10.0509C77.6136 10.0509 77.2551 9.94631 76.9413 9.7222C76.6276 9.4981 76.3885 9.19929 76.269 8.82578C76.1794 8.57179 76.1345 8.31781 76.1345 8.06382C76.1345 7.79489 76.1794 7.54091 76.269 7.27198C76.3586 7.03293 76.4782 6.82377 76.6575 6.64448C76.8367 6.4652 77.031 6.3158 77.2551 6.22615C77.4941 6.12157 77.7481 6.06181 78.017 6.06181C78.3457 6.04687 78.6744 6.13651 78.9583 6.30086C79.2421 6.48014 79.4812 6.70425 79.6903 6.97317C79.78 7.07776 79.8995 7.1674 80.034 7.22716C80.1834 7.28692 80.3627 7.2421 80.542 7.09269L81.5131 6.36062C81.6326 6.28591 81.7222 6.16639 81.7671 6.03193C81.8268 5.88253 81.8119 5.71818 81.7222 5.58372C81.3487 5.00104 80.8408 4.52295 80.2282 4.17932C79.5858 3.82075 78.8238 3.62653 77.9722 3.62653C77.3746 3.62653 76.777 3.74605 76.2092 3.97015C75.6714 4.19426 75.1933 4.50801 74.7899 4.9114C74.3865 5.31479 74.0578 5.79288 73.8337 6.33074C73.3706 7.45127 73.3706 8.70626 73.8337 9.82679C74.0578 10.3497 74.3716 10.8427 74.7899 11.2312C75.6415 12.0678 76.777 12.5161 77.9722 12.5161C78.8238 12.5161 79.5858 12.3218 80.2282 11.9633C80.8408 11.6196 81.3637 11.1415 81.7372 10.5439C81.8119 10.4095 81.8268 10.2451 81.782 10.1107C81.7222 9.99113 81.6326 9.87161 81.5131 9.78196ZM90.5072 11.53L87.8329 7.61561L90.1187 4.59765C90.2233 4.46319 90.2681 4.26896 90.2084 4.10462C90.1636 3.9851 90.059 3.86557 89.7751 3.86557H87.9673C87.8627 3.86557 87.7582 3.89545 87.6685 3.94027C87.549 4.00004 87.4594 4.08968 87.3996 4.19426L85.5769 6.74907H85.1436V0.713153C85.1436 0.59363 85.0988 0.474105 85.0091 0.384463C84.9195 0.29482 84.8149 0.25 84.6954 0.25H83.0071C82.8876 0.25 82.7681 0.29482 82.6784 0.384463C82.5888 0.474105 82.544 0.578689 82.544 0.713153V11.8437C82.544 11.9782 82.5888 12.0828 82.6784 12.1724C82.7681 12.2621 82.8876 12.3069 83.0071 12.3069H84.6954C84.8149 12.3069 84.9344 12.2621 85.0091 12.1724C85.0988 12.0828 85.1436 11.9633 85.1436 11.8437V8.90048H85.6217L87.6087 11.9483C87.7283 12.1724 87.9524 12.3069 88.1914 12.3069H90.0889C90.3727 12.3069 90.4922 12.1724 90.552 12.0529C90.6267 11.8736 90.6118 11.6794 90.5072 11.53ZM48.4052 3.85063H46.5078C46.3584 3.85063 46.2239 3.89545 46.1193 4.00004C46.0297 4.08968 45.9699 4.19426 45.94 4.31378L44.5356 9.51304H44.192L42.698 4.31378C42.6681 4.2092 42.6233 4.10462 42.5486 4.00004C42.4589 3.89545 42.3394 3.83569 42.2049 3.83569H40.2776C40.0236 3.83569 39.8742 3.91039 39.7995 4.08968C39.7547 4.23908 39.7547 4.40343 39.7995 4.55283L42.19 11.8736C42.2348 11.9782 42.2796 12.0977 42.3693 12.1724C42.4589 12.2621 42.5934 12.3069 42.7278 12.3069H43.7438L43.6541 12.5459L43.43 13.2183C43.3553 13.4274 43.2358 13.6067 43.0565 13.7412C42.8922 13.8607 42.698 13.9354 42.4888 13.9205C42.3095 13.9205 42.1452 13.8756 41.9808 13.8159C41.8165 13.7412 41.6671 13.6515 41.5326 13.5469C41.4131 13.4573 41.2637 13.4125 41.0993 13.4125H41.0844C40.9051 13.4274 40.7408 13.5171 40.6511 13.6814L40.0535 14.5629C39.8145 14.9513 39.9489 15.1904 40.0983 15.3248C40.427 15.6237 40.8005 15.8478 41.2189 15.9822C41.682 16.1466 42.1601 16.2213 42.6382 16.2213C43.5047 16.2213 44.2219 15.9822 44.7747 15.5191C45.3424 15.0111 45.7757 14.3537 45.9848 13.6067L48.7638 4.55283C48.8235 4.38849 48.8385 4.22414 48.7787 4.07474C48.7638 3.97016 48.6592 3.85063 48.4052 3.85063Z" fill="white"/>
</svg>
