<svg width="34" height="11" viewBox="0 0 34 11" fill="none" xmlns="http://www.w3.org/2000/svg">
<path d="M21.861 0.25C19.5431 0.25 17.4717 1.4514 17.4717 3.67107C17.4717 6.21659 21.1454 6.3924 21.1454 7.6712C21.1454 8.20965 20.5283 8.69167 19.4744 8.69167C17.9787 8.69167 16.8608 8.01817 16.8608 8.01817L16.3824 10.2581C16.3824 10.2581 17.6702 10.827 19.38 10.827C21.9142 10.827 23.9082 9.56656 23.9082 7.30898C23.9082 4.61915 20.2193 4.44855 20.2193 3.26163C20.2193 2.83977 20.7259 2.37762 21.7768 2.37762C22.9625 2.37762 23.9299 2.86745 23.9299 2.86745L24.3981 0.70411C24.3981 0.70411 23.3454 0.25 21.861 0.25ZM0.654772 0.413286L0.598633 0.739826C0.598633 0.739826 1.57378 0.918274 2.45203 1.27429C3.58285 1.68249 3.66343 1.92015 3.85387 2.65825L5.92917 10.6586H8.71121L12.9971 0.413286H10.2215L7.46753 7.37911L6.34378 1.47453C6.24071 0.798775 5.71867 0.413286 5.07967 0.413286H0.654772ZM14.1132 0.413286L11.9358 10.6586H14.5826L16.7524 0.413253H14.1132V0.413286ZM28.8753 0.413286C28.237 0.413286 27.8989 0.754988 27.6507 1.35209L23.773 10.6586H26.5487L27.0857 9.10745H30.4672L30.7937 10.6586H33.2428L31.1062 0.413286H28.8753ZM29.2363 3.18124L30.059 7.02577H27.8548L29.2363 3.18124Z" fill="#1434CB"/>
</svg>
